#!OML:ASF F:\VICON\USERDATA\INSTALL\rory3\rory3.ASF
:FULLY-SPECIFIED
:DEGREES
2773
root 0.0169624 16.698 -0.380625 -9.20672 4.95796 0.157015
lowerback 2.45341 -0.445545 -2.2569
upperback 7.17395 -0.543466 -0.327562
thorax 6.08736 -0.383727 0.90582
lowerneck -9.09945 -10.682 -18.6599
upperneck 25.753 -15.3131 13.4847
head 12.6141 -7.37518 5.93198
rclavicle 4.52235e-015 -4.17448e-015
rhumerus 34.2104 -8.20423 -12.9543
rradius 80.7071
rwrist 14.3894
rhand 20.1977 19.5666
rfingers 7.12502
rthumb 44.7192 -4.04275
lclavicle 4.52235e-015 -4.17448e-015
lhumerus 32.3544 -4.43872 13.6784
lradius 79.8965
lwrist 4.72255
lhand 2.63875 23.2065
lfingers 7.12502
lthumb 28.1153 51.119
rfemur -1.03957 0.871737 18.2945
rtibia 35.0307
rfoot -26.2958 -8.41558
rtoes -19.0593
lfemur -3.39843 -7.38565 -18.6534
ltibia 36.3962
lfoot -21.8962 -3.57668
ltoes -13.4736
2774
root 0.0120344 16.6855 -0.395568 -9.30719 5.15467 0.126884
lowerback 2.71642 -0.485127 -2.34415
upperback 7.26987 -0.605984 -0.21949
thorax 6.04457 -0.423538 1.06692
lowerneck -9.14007 -10.7316 -18.8255
upperneck 25.5413 -15.3482 13.5902
head 12.5715 -7.39252 5.98469
rclavicle 1.81639e-014 -9.93923e-015
rhumerus 34.1109 -9.22973 -13.9165
rradius 81.6452
rwrist 14.0933
rhand 19.9963 19.3238
rfingers 7.12502
rthumb 44.5316 -4.35789
lclavicle 1.81639e-014 -9.93923e-015
lhumerus 32.181 -2.53691 15.722
lradius 79.7664
lwrist 5.78201
lhand 1.75165 23.3276
lfingers 7.12502
lthumb 27.2671 51.3763
rfemur -1.07339 0.730272 18.3159
rtibia 35.2601
rfoot -26.426 -8.44664
rtoes -18.8678
lfemur -3.54213 -7.45162 -18.6109
ltibia 36.6853
lfoot -22.0232 -3.67232
ltoes -14.095
2775
root 0.00919602 16.6706 -0.410359 -9.37665 5.35918 0.032187
lowerback 2.9006 -0.506484 -2.29129
upperback 7.387 -0.641635 -0.13756
thorax 6.06617 -0.441947 1.12261
lowerneck -9.05693 -10.8173 -18.9739
upperneck 25.255 -15.4804 13.7874
head 12.501 -7.44822 6.05546
rclavicle -8.54774e-015 2.78299e-015
rhumerus 33.987 -10.6298 -15.3432
rradius 82.7659
rwrist 14.1822
rhand 19.5983 18.8823
rfingers 7.12502
rthumb 44.1607 -4.94044
lclavicle -8.54774e-015 2.78299e-015
lhumerus 32.2554 -0.528413 18.0098
lradius 79.7157
lwrist 6.87351
lhand 0.321092 23.8481
lfingers 7.12502
lthumb 25.8979 52.1043
rfemur -1.1931 0.513798 18.3848
rtibia 35.5779
rfoot -26.5645 -8.50754
rtoes -18.3924
lfemur -3.75873 -7.51067 -18.4898
ltibia 37.0178
lfoot -22.2299 -3.68287
ltoes -14.8528
2776
root 0.00776753 16.6557 -0.422731 -9.39475 5.57092 0.0631935
lowerback 2.98616 -0.573219 -2.42271
upperback 7.51806 -0.735157 -0.0283207
thorax 6.1658 -0.501798 1.3073
lowerneck -8.99281 -10.8318 -19.1534
upperneck 25.0005 -15.4715 13.8865
head 12.4122 -7.45243 6.11959
rclavicle 6.59717e-015 1.19271e-015
rhumerus 34.2238 -12.2312 -17.1249
rradius 83.9437
rwrist 14.5434
rhand 19.2562 18.7366
rfingers 7.12502
rthumb 43.8415 -5.2051
lclavicle 6.59717e-015 1.19271e-015
lhumerus 32.1999 1.55077 20.2821
lradius 79.8482
lwrist 8.05781
lhand -1.48659 24.319
lfingers 7.12502
lthumb 24.1657 52.8167
rfemur -1.37917 0.286677 18.2902
rtibia 35.9542
rfoot -26.7628 -8.53101
rtoes -18.6667
lfemur -4.0288 -7.53194 -18.5076
ltibia 37.3801
lfoot -22.3511 -3.85942
ltoes -14.8114
2777
root 0.00498487 16.6372 -0.43495 -9.40941 5.73025 0.112062
lowerback 3.07643 -0.652121 -2.64257
upperback 7.65001 -0.845749 0.100543
thorax 6.26818 -0.576592 1.56162
lowerneck -9.02321 -10.8034 -19.2562
upperneck 24.871 -15.3734 13.8521
head 12.3534 -7.41834 6.13534
rclavicle -4.53478e-015 -1.09332e-015
rhumerus 34.6708 -13.9833 -19.2598
rradius 85.3083
rwrist 14.7837
rhand 19.1069 18.5674
rfingers 7.12502
rthumb 43.7022 -5.42566
lclavicle -4.53478e-015 -1.09332e-015
lhumerus 32.0396 3.71445 22.3387
lradius 80.2406
lwrist 8.67175
lhand -2.49871 24.5949
lfingers 7.12502
lthumb 23.195 53.2182
rfemur -1.61536 0.0980756 18.1896
rtibia 36.372
rfoot -26.9249 -8.52957
rtoes -19.0348
lfemur -4.29365 -7.46269 -18.5198
ltibia 37.7498
lfoot -22.3769 -4.27553
ltoes -13.915
2778
root 0.00289625 16.6185 -0.446485 -9.3937 5.86915 0.107089
lowerback 3.15763 -0.692942 -2.6754
upperback 7.72137 -0.903916 0.155541
thorax 6.30327 -0.61049 1.63627
lowerneck -8.95196 -10.8067 -19.2613
upperneck 24.874 -15.3724 13.7984
head 12.3352 -7.42605 6.11808
rclavicle 2.19906e-015 -7.95139e-015
rhumerus 34.9984 -15.7451 -21.5674
rradius 86.7751
rwrist 14.8596
rhand 18.8845 18.0408
rfingers 7.12502
rthumb 43.4946 -6.02799
lclavicle 2.19906e-015 -7.95139e-015
lhumerus 32.1762 5.70922 24.2049
lradius 80.765
lwrist 8.55022
lhand -2.75772 24.8297
lfingers 7.12502
lthumb 22.9465 53.4841
rfemur -1.88918 -0.0722742 18.1563
rtibia 36.8164
rfoot -27.056 -8.69334
rtoes -19.9823
lfemur -4.58279 -7.39944 -18.4694
ltibia 38.105
lfoot -22.4585 -4.64874
ltoes -13.0877
2779
root 0.000245582 16.6028 -0.455819 -9.38136 5.96682 0.179533
lowerback 3.215 -0.764681 -2.88547
upperback 7.79719 -1.00267 0.228243
thorax 6.36449 -0.676477 1.82716
lowerneck -8.80208 -10.775 -19.2684
upperneck 24.8467 -15.3141 13.6884
head 12.2718 -7.41743 6.09218
rclavicle -1.23619e-015 4.22417e-015
rhumerus 35.6492 -17.4503 -24.0266
rradius 88.1006
rwrist 15.0682
rhand 18.4721 17.9619
rfingers 7.12502
rthumb 43.1092 -6.24536
lclavicle -1.23619e-015 4.22417e-015
lhumerus 32.137 7.5545 25.7771
lradius 81.4568
lwrist 7.79779
lhand -2.76083 24.6573
lfingers 7.12502
lthumb 22.9435 53.3121
rfemur -2.14757 -0.236426 18.0314
rtibia 37.2596
rfoot -27.1027 -8.9065
rtoes -21.657
lfemur -4.83201 -7.32699 -18.5079
ltibia 38.4425
lfoot -22.5806 -4.91114
ltoes -12.3419
2780
root 0.000453836 16.5871 -0.465514 -9.38984 6.05663 0.299376
lowerback 3.33334 -0.819894 -3.05642
upperback 7.85486 -1.08001 0.262717
thorax 6.36915 -0.727302 1.95801
lowerneck -8.60731 -10.7235 -19.2515
upperneck 24.9059 -15.2461 13.563
head 12.2278 -7.40615 6.06343
rclavicle 3.14328e-015 1.02871e-014
rhumerus 36.3437 -19.1586 -26.5088
rradius 89.3848
rwrist 15.2147
rhand 18.4335 18.1876
rfingers 7.12502
rthumb 43.0731 -6.03248
lclavicle 3.14328e-015 1.02871e-014
lhumerus 32.0526 9.05475 26.9552
lradius 82.2321
lwrist 6.72642
lhand -2.75054 24.4404
lfingers 7.12502
lthumb 22.9534 53.094
rfemur -2.36944 -0.508583 17.808
rtibia 37.6713
rfoot -27.1527 -8.93365
rtoes -22.4429
lfemur -5.02076 -7.29937 -18.6319
ltibia 38.7403
lfoot -22.7152 -5.05172
ltoes -12.2401
2781
root -0.000949198 16.5729 -0.475886 -9.41387 6.02642 0.274467
lowerback 3.49883 -0.831473 -3.045
upperback 7.91166 -1.10367 0.3353
thorax 6.33857 -0.741321 2.02889
lowerneck -8.55221 -10.6968 -19.4063
upperneck 25.1034 -15.2212 13.6023
head 12.3094 -7.4087 6.11828
rclavicle 1.16662e-014 4.57205e-015
rhumerus 37.0581 -20.7341 -28.9135
rradius 90.6812
rwrist 15.3506
rhand 18.077 18.119
rfingers 7.12502
rthumb 42.7396 -6.21828
lclavicle 1.16662e-014 4.57205e-015
lhumerus 32.0497 10.2712 27.872
lradius 82.9613
lwrist 5.64583
lhand -2.65681 24.3909
lfingers 7.12502
lthumb 23.0433 53.0332
rfemur -2.58634 -0.648554 17.7912
rtibia 38.0258
rfoot -27.285 -8.82501
rtoes -22.1908
lfemur -5.20464 -7.16841 -18.5558
ltibia 38.9982
lfoot -22.8211 -5.11362
ltoes -12.3724
2782
root -0.00511162 16.5599 -0.484689 -9.43924 6.0068 0.316951
lowerback 3.58214 -0.873004 -3.20715
upperback 8.04597 -1.1642 0.431543
thorax 6.4473 -0.788297 2.21882
lowerneck -8.73714 -10.6996 -19.7266
upperneck 25.3791 -15.1882 13.6987
head 12.4928 -7.40715 6.21655
rclavicle -2.24898e-014 -2.29721e-014
rhumerus 38.1553 -22.2137 -31.4105
rradius 91.801
rwrist 15.7339
rhand 17.7831 18.0199
rfingers 7.12502
rthumb 42.4645 -6.41255
lclavicle -2.24898e-014 -2.29721e-014
lhumerus 32.0399 11.3619 28.4677
lradius 83.5782
lwrist 4.88403
lhand -2.19572 24.7677
lfingers 7.12502
lthumb 23.4857 53.3541
rfemur -2.77235 -0.807346 17.7106
rtibia 38.3187
rfoot -27.4029 -8.81287
rtoes -22.7374
lfemur -5.36165 -7.00833 -18.5409
ltibia 39.1984
lfoot -22.8683 -5.37892
ltoes -11.8029
